<?xml version="1.0" encoding="UTF-8"?>
<svg id="Layer_1" xmlns="http://www.w3.org/2000/svg" version="1.1" viewBox="0 0 1171.8 453.5">
  <!-- Generator: Adobe Illustrator 29.5.1, SVG Export Plug-In . SVG Version: 2.1.0 Build 141)  -->
  <g id="sfnXgS.tif">
    <g>
      <path d="M277.5,377.9c.6.7,3.8-4,4.2-4.5,32.2-44,56-103.3,80.3-152.5,14.6-29.5,30.4-63.3,53.2-87.3,13.7-14.4,24-18.4,44-19,38.8-1.1,39.1,46.8,39.7,74.7,1.4,62.7-6.6,129,2.1,191.3,1.1,8,4,26,10.4,31.1s15.4-.8,20.7-3.9c26.7-15.4,56.5-52.1,79.1-74.4,21.4-21.2,56.7-56.8,82.7-70.2,3.9-2,13.1-6.5,16.4-1.9,6.1,8.4,1.9,19.2-.8,28-7.6,25.3-19.6,51.9-20.1,78.8-.2,10.6,4.5,27.1,18.4,21.3,14.1-5.8,30.8-20.8,43.5-30,19.7-14.2,38.7-27.3,60.1-38.8,28-15.1,58.4-30.9,88.6-40.8,15.3-5,52-17.1,66.6-15.8,4.7.4,6,2.2,9.8,3.7,13.1,5.3,18.4,3.4,22.1,19.3,9.2,38.7-.7,80.7,28.6,113.3,14.1,15.8,23.9,18,42.4,6.9,29.6-17.7,37.6-53.8,65.7-69.8,13-7.4,32.8-10.3,36,8.8s.7,26.5-.4,35.8c-.3,3-.9,11.4-5.4,10.4s-8.5-4.7-12.3-6.3c-20.1-8.6-32.5,6.9-46.9,17.8-13.1,9.9-31,24-46.9,28-61.6,15.7-84.7-66.6-91.1-111.8-.3-.9-1.1-1.6-2-1.3-3.7,1-20,29.6-23.3,34.7-16.4,25.1-45.3,60.9-75.1,69.3-42.1,11.9-51.3-33.5-42.1-64.6s7.9-17,11.1-25.8c.3-.8,2.1-4.8.4-4.6-3.1.4-11,4.8-14.1,6.4-21.4,11.2-40.9,25.7-59.9,40.6s-53,47.6-76,49.4c-42.8,3.4-35.8-56.1-29.3-82.7s10.7-30.8,16.4-46.5c.6-1.5,1.5-3.5,1.4-5.1-4.5,3.8-8.6,8.6-12.5,13-24.9,27.9-48.5,57.1-73.5,85-21.2,23.6-54.4,64.3-90.7,54.7-22.9-6-28.5-28.1-32.3-48.7-13.8-74.8-.7-153.6-8.7-229.1-.7-6.4-2.2-21.4-8.5-24.5-14.7-7.3-25.1,9.7-32.1,19.9-13.6,19.7-25.6,43-36.6,64.3-26.9,51.9-50.8,105.8-79.6,156.7-6.6,11.7-17.1,32.1-28,39.4-3.5,2.4-10,5.8-14.3,5.7s-12.7-5.2-14.1-9.9c-2.8-9.2,5.3-36,8.1-46.1,23-81.6,56.1-165,67.6-249.2s5.6-55.4-8-78.3c-13.2-22-29.4-10.9-45.7.5-32.1,22.6-61.5,57.2-84.5,88.9-61.4,84.5-103.7,181.5-142.8,278-4.8,11.8-10.8,36.3-23.1,41.8-15.3,6.8-17.6-15-15.5-25,17.8-95,41.6-189.2,57.7-284.5,2.6-15.6,9.1-37.1-7.3-46.3s-17.5-5.8-21.2-8.8-.2-6.4,2.2-8.7c9.2-9,28.5-22.2,39.6-29.3s13.9-10.1,21.4-4.1c9.2,7.3,24.4,29.5,25.9,41.1s-3.6,21.6-5.5,29.2c-12.9,50.2-30.2,99.8-44.1,149.8l.3,2c29.4-57.6,61.4-115.6,101.5-166.6S247.1,13.4,294,2.4c43.2-10.1,70.7,12.5,72,55.9,1.7,56.7-24.9,125.9-42.5,179.9-14.4,44.1-31.7,89-44.6,133.3s-1.8,5.8-1.4,6.4ZM945.7,299.4c-1.4,0-2.6.8-3.8,1.4-28.6,14.4-84.1,53.3-87.1,87.8-1.1,12.4,5,11.7,14.3,7.8,21.1-8.7,39.9-32.7,51.9-51.6,7.5-11.8,16.8-27.2,22.9-39.6.9-1.8,2.1-3.7,1.9-5.8Z"/>
      <path d="M752.2,156.2c12.5-.9,18.9,9.8,15.7,21.2s-15.1,20.3-24.4,19.6c-19.2-1.5-13.5-39.3,8.6-40.8Z"/>
    </g>
  </g>
</svg>