<?xml version="1.0" encoding="UTF-8"?>
<svg id="Layer_1" xmlns="http://www.w3.org/2000/svg" version="1.1" viewBox="0 0 863.4 527.1">
  <!-- Generator: Adobe Illustrator 29.5.1, SVG Export Plug-In . SVG Version: 2.1.0 Build 141)  -->
  <defs>
    <style>
      .st0 {
        fill: #fff;
      }
    </style>
  </defs>
  <g id="MoLoFp.tif">
    <g>
      <path class="st0" d="M322,439.2c13.7-45.1,29.7-89.4,44.5-134.1,8.8-26.7,17.7-53.5,26.1-80.3,16.4-52.3,34.8-105.8,32.4-161.5-1.9-42.6-29.7-67.8-72.7-62.6-59.2,7.1-121.1,74.5-155.9,119.4-45.5,58.6-82,124.9-115.7,190.8l-.3-2c15.3-53.7,32.9-106.8,47.6-160.7s11.4-37,10.1-47.8c-1.6-13.1-20-40.4-30.7-48.3-6.9-5.1-12.9-1.4-19.2,2.3-14.1,8.3-38.1,25.4-50,36.4-3.1,2.9-8.1,7.7-3.2,11.2,4.9,3.5,16.3,5.8,22.5,9,20.3,10.4,14.1,32,11,50.6-2.5,15-5.7,30-8.6,44.9C41.3,303,20.2,399.1.8,495.5c-2,9-1.1,32.6,12.6,31.6s25.8-34.1,31.1-47.4c12.5-31.4,26.2-62.8,39.5-93.9,30.7-71.8,67.4-143.4,111.1-208.2,30.4-45.1,70.8-96.4,115.7-127.6,11.5-8,30.3-21.3,43.3-10.6,28.3,23.2,21.3,81.1,16.4,112.8-14.5,93.5-50.7,186.5-76.6,277.6-3.7,13.1-11.7,38.8-10.2,51.6s8.6,12.9,14.7,13.8c22.6,3,41-33.8,50.3-50.1,41.5-73,74-151.4,115.3-224.5,7.7-13.7,28.6-50.6,41.4-57.5s18.2-2.2,22.1,6.2c6.7,14.6,7,56.3,7.6,73.9,2.5,71.3-6.1,146.6,7.6,217.2s11.6,47.9,37.7,54.2c28.9,7,55.6-13.6,75.6-31.6,33.8-30.4,63.3-65.2,97.4-94.9,19.3-16.8,44.6-40.3,72.1-35.6,10.1,1.7,22.9,11.1,32.9,6.1,7.4-3.7,5.1-19,3.8-25.8-3.6-19.9-13.9-33.9-35.1-35.8-32.8-2.9-51.2,23.9-70.9,44.4-31.1,32.4-62.8,65-94.9,96.4-12.8,12.5-39.4,38.4-56.6,41.8s-7.8,1.5-11.3-1.9c-11.6-11.3-13.5-61.5-14.3-78.1-2.2-47.9-.5-96,.5-143.9.6-29.8,4.1-87.4-16.5-110.9-10.5-12-20.7-12.3-35.7-11.2-21.4,1.5-31.6,7.5-46,23-19.5,21-33.4,46.6-46.5,71.9-33.8,65.4-61.3,134.4-101.5,196.3-2.5,3.9-5.8,9.5-8.7,12.8s-2,2.3-2.5,1.8Z"/>
      <path class="st0" d="M322,439.2c.5.6,2.1-1.4,2.5-1.8,3-3.3,6.2-8.9,8.7-12.8,40.2-61.9,67.7-130.9,101.5-196.3,13.1-25.3,27-50.9,46.5-71.9,14.3-15.5,24.5-21.4,46-23,15-1.1,25.2-.7,35.7,11.2,20.6,23.4,17.1,81,16.5,110.9-.9,47.9-2.7,96-.5,143.9.8,16.6,2.7,66.8,14.3,78.1s6.9,2.8,11.3,1.9c17.2-3.4,43.9-29.3,56.6-41.8,32.1-31.5,63.8-64,94.9-96.4,19.7-20.5,38.1-47.3,70.9-44.4,21.2,1.9,31.6,15.9,35.1,35.8,1.2,6.8,3.6,22.1-3.8,25.8-10,5-22.8-4.4-32.9-6.1-27.5-4.7-52.8,18.8-72.1,35.6-34.1,29.8-63.7,64.5-97.4,94.9-20,18-46.6,38.6-75.6,31.6-26.1-6.3-33.2-30.9-37.7-54.2-13.7-70.6-5.1-145.8-7.6-217.2-.6-17.5-.9-59.3-7.6-73.9s-14.3-10.4-22.1-6.2c-12.8,6.9-33.7,43.9-41.4,57.5-41.3,73.1-73.8,151.5-115.3,224.5-9.3,16.3-27.7,53.1-50.3,50.1-6.1-.8-14-7.4-14.7-13.8-1.5-12.9,6.5-38.6,10.2-51.6,25.9-91,62.1-184.1,76.6-277.6,4.9-31.8,11.9-89.6-16.4-112.8-13-10.7-31.9,2.7-43.3,10.6-44.9,31.2-85.3,82.5-115.7,127.6-43.7,64.8-80.4,136.4-111.1,208.2s-27,62.5-39.5,93.9c-5.3,13.3-13.3,46.2-31.1,47.4s-14.6-22.6-12.6-31.6c19.4-96.4,40.5-192.5,59.1-289.1,2.9-14.9,6.1-29.9,8.6-44.9,3.1-18.7,9.3-40.3-11-50.6-6.2-3.2-17.6-5.5-22.5-9-5-3.5,0-8.3,3.2-11.2,11.9-11.1,35.9-28.1,50-36.4,6.3-3.7,12.3-7.4,19.2-2.3,10.7,7.9,29.1,35.1,30.7,48.3,1.3,10.8-6.9,36.3-10.1,47.8-14.7,53.9-32.3,107-47.6,160.7l.3,2c33.8-65.9,70.2-132.2,115.7-190.8C231.2,75.2,293.2,7.8,352.3.7c43-5.2,70.8,20,72.7,62.6,2.5,55.7-15.9,109.2-32.4,161.5-8.4,26.8-17.3,53.6-26.1,80.3-14.8,44.7-30.8,89.1-44.5,134.1Z"/>
    </g>
  </g>
</svg>